<?xml version="1.0" encoding="UTF-8"?>
<svg version="1.1" xmlns="http://www.w3.org/2000/svg" width="1254" height="1254">


<path d="M0 0 C0.77467621 0.0143811 1.54935242 0.02876221 2.34750366 0.0435791 C3.16724167 0.042995 3.98697968 0.04241089 4.83155823 0.04180908 C7.54278824 0.04459724 10.25292066 0.07572298 12.96395874 0.10705566 C14.84296569 0.11451547 16.72198042 0.12020963 18.60099792 0.12420654 C23.54794778 0.1394834 28.49442829 0.17878286 33.44119263 0.22302246 C38.48843028 0.26393096 43.53574373 0.2822081 48.58309937 0.30236816 C58.48760252 0.34527514 68.39175723 0.41355127 78.29598999 0.49768066 C77.34459076 1.94315235 76.39075047 3.38701754 75.43588257 4.8302002 C74.90497513 5.63442413 74.37406769 6.43864807 73.82707214 7.26724243 C72.0621234 9.83837106 70.12439214 12.10679176 67.98348999 14.37268066 C64.88822307 17.71988792 61.94995413 21.12014666 59.10848999 24.68518066 C51.31976291 34.30494182 42.68455033 43.25898272 33.84286499 51.91174316 C32.07989738 53.66470588 32.07989738 53.66470588 29.92098999 56.49768066 C29.11661499 57.48768066 29.11661499 57.48768066 28.29598999 58.49768066 C27.63598999 58.49768066 26.97598999 58.49768066 26.29598999 58.49768066 C26.0549353 59.07518066 25.81388062 59.65268066 25.56552124 60.24768066 C24.04781178 62.93752882 22.32031591 64.47829591 19.98348999 66.49768066 C16.44038316 69.60172815 12.94468208 72.73813961 9.50643921 75.95690918 C3.31255883 81.74795793 -3.05511165 87.22942786 -9.70401001 92.49768066 C-10.22543579 92.91340332 -10.74686157 93.32912598 -11.28408813 93.75744629 C-25.0896826 104.75954342 -39.16089441 115.33736298 -53.79971313 125.20812988 C-55.57301293 126.40897213 -57.33498576 127.62461893 -59.09463501 128.84533691 C-77.13550515 141.24908578 -96.42544365 152.14954003 -115.70401001 162.49768066 C-116.61231567 162.98800781 -117.52062134 163.47833496 -118.45645142 163.98352051 C-134.53617234 172.62793171 -150.90628775 180.35382177 -167.70401001 187.49768066 C-169.36303345 188.20537598 -169.36303345 188.20537598 -171.05557251 188.92736816 C-187.36840893 195.84217704 -203.87892994 201.86795652 -220.67471313 207.4786377 C-223.16674706 208.31694762 -225.64875499 209.17523946 -228.12588501 210.05627441 C-236.68134491 213.05442139 -245.34362618 215.18364688 -254.17276001 217.18908691 C-258.39012001 218.15520743 -262.54970704 219.27421457 -266.71963501 220.42736816 C-275.37338261 222.78463961 -284.13755996 224.43964762 -292.95401001 226.06018066 C-293.77392426 226.21208862 -294.5938385 226.36399658 -295.43859863 226.52050781 C-300.20610591 227.40366966 -304.97558885 228.27536636 -309.74642944 229.14031982 C-312.18871595 229.58616485 -314.62775438 230.04878059 -317.06729126 230.50939941 C-340.96797973 234.84518628 -365.53392703 235.78040741 -389.76651001 235.81018066 C-390.67569183 235.81367523 -391.58487366 235.8171698 -392.52160645 235.82077026 C-404.37351338 235.8461462 -415.94911724 235.12071159 -427.71484375 233.72219849 C-430.32965003 233.42706448 -432.94626225 233.22227865 -435.57119751 233.04064941 C-476.80583238 230.16708568 -517.49073149 219.49744707 -554.70401001 201.49768066 C-555.37480591 201.17477051 -556.04560181 200.85186035 -556.73672485 200.51916504 C-560.64078861 198.62830237 -564.51346147 196.68129204 -568.3710022 194.6973877 C-570.11740707 193.79933061 -571.86578205 192.90510288 -573.61514282 192.01281738 C-576.79427818 190.38983685 -579.96848233 188.75756606 -583.14151001 187.12268066 C-584.16800659 186.59827393 -585.19450317 186.07386719 -586.25210571 185.53356934 C-587.20432007 185.0396167 -588.15653442 184.54566406 -589.13760376 184.03674316 C-589.99410522 183.59540039 -590.85060669 183.15405762 -591.73306274 182.69934082 C-593.70401001 181.49768066 -593.70401001 181.49768066 -594.70401001 179.49768066 C-591.11600408 180.09674382 -588.18356676 181.09548997 -584.89151001 182.62268066 C-549.20028529 197.64829879 -508.58726344 202.9089609 -470.3085022 206.18273926 C-468.13063499 206.37302974 -465.95371538 206.5754658 -463.77920532 206.80090332 C-453.9792348 207.77193173 -444.1660976 207.65146464 -434.32901001 207.62268066 C-433.39569855 207.62112976 -432.46238708 207.61957886 -431.50079346 207.61798096 C-406.18906853 207.81868568 -406.18906853 207.81868568 -381.08511353 205.0526123 C-378.05727858 204.55566171 -375.03745461 204.17753598 -371.98730469 203.84934998 C-362.42575205 202.81715033 -353.01558795 201.2752396 -343.57901001 199.43518066 C-342.81574402 199.28794556 -342.05247803 199.14071045 -341.26608276 198.98901367 C-326.15587459 196.04760465 -311.49067943 192.02802774 -296.79678345 187.45544434 C-294.12978297 186.62953315 -291.45574239 185.84134601 -288.77432251 185.06408691 C-243.62590838 171.52964249 -199.18969501 151.4988662 -158.70401001 127.49768066 C-157.38892456 126.72666016 -157.38892456 126.72666016 -156.04727173 125.94006348 C-145.71961338 119.88415366 -135.57821603 113.61776956 -125.69668579 106.85754395 C-123.47497673 105.34138131 -121.2439877 103.83940877 -119.01260376 102.33752441 C-110.27742368 96.43762951 -101.73153818 90.41514597 -93.46035767 83.87561035 C-91.46372762 82.30916888 -89.45013321 80.76612317 -87.43447876 79.22424316 C-77.55174815 71.64427447 -67.99884176 63.7870187 -58.70401001 55.49768066 C-57.96175171 54.84372314 -57.21949341 54.18976562 -56.45474243 53.51599121 C-50.26691219 48.02150283 -44.34415894 42.29317251 -38.50747681 36.43151855 C-37.01096076 34.92961142 -35.50912701 33.43317004 -34.00674438 31.93713379 C-29.24005272 27.17377911 -24.580098 22.36015412 -20.19497681 17.23815918 C-17.20341341 13.74596081 -14.05138284 10.39699896 -10.93838501 7.01330566 C-8.701003 4.69167085 -8.701003 4.69167085 -7.56758118 2.36883545 C-5.16431644 -0.04420913 -3.31401524 0.02563272 0 0 Z " fill="#F76704" transform="translate(937.7040100097656,821.5023193359375)"/>


<path d="M0 0 C2 0 2 0 3.234375 1.22265625 C3.73453125 1.82980469 4.2346875 2.43695312 4.75 3.0625 C8.29998113 7.24112362 11.99850247 11.25345515 15.75 15.25 C20.98073387 20.83286236 26.17889515 26.44244344 31.33984375 32.08984375 C33.18285972 34.10606533 35.02861363 36.11939517 36.87890625 38.12890625 C44.80204133 46.73867728 44.80204133 46.73867728 48.4375 50.9375 C52.06212089 55.12109857 55.83385067 59.1643461 59.59741211 63.22241211 C62.82675871 66.71071336 65.98499037 70.2473418 69.09375 73.84375 C71.68285002 76.77240413 74.34196234 79.63396673 77 82.5 C80.78633906 86.58298873 84.51767133 90.69769814 88.16015625 94.91015625 C90.56670156 97.64370559 93.03303196 100.32114006 95.5 103 C98.53890177 106.30026876 101.561561 109.60949347 104.5 113 C107.86322638 116.87817013 111.33335671 120.65527811 114.80810547 124.43310547 C120.06044565 130.14576714 125.24423575 135.91924255 130.41796875 141.703125 C131.60326172 143.02570313 131.60326172 143.02570313 132.8125 144.375 C133.52019531 145.16648437 134.22789062 145.95796875 134.95703125 146.7734375 C136.34271947 148.28365219 137.78081066 149.7470969 139.26171875 151.1640625 C141 153 141 153 141 155 C127.89138084 155.27868158 114.78347203 155.49157961 101.67248821 155.62174606 C95.58356912 155.68423824 89.496684 155.76891868 83.40893555 155.90527344 C77.527827 156.03616755 71.64866765 156.10751317 65.76621437 156.13852692 C63.52816908 156.16061143 61.2902244 156.20374184 59.05301476 156.26876068 C40.60863576 156.78322424 40.60863576 156.78322424 35.23574829 152.39367676 C32.38382045 149.55567026 30.18876965 146.37297963 28 143 C26.81612945 141.60388218 25.61348458 140.22290593 24.375 138.875 C23.83359375 138.25109375 23.2921875 137.6271875 22.734375 136.984375 C19.20500535 132.94626738 15.59429369 128.98025811 12 125 C3.42269737 115.50164474 3.42269737 115.50164474 -0.25 111.25 C-4.13912071 106.77932853 -8.19737646 102.46813572 -12.23901367 98.13598633 C-15.60818639 94.51828797 -18.90678422 90.85615824 -22.13671875 87.11328125 C-24.66966701 84.24048249 -27.27214006 81.43441052 -29.875 78.625 C-34.96715489 73.12775137 -40.0109094 67.59122223 -45 62 C-45.67289063 61.25621094 -46.34578125 60.51242187 -47.0390625 59.74609375 C-47.66554688 59.04613281 -48.29203125 58.34617187 -48.9375 57.625 C-49.48277344 57.01914062 -50.02804687 56.41328125 -50.58984375 55.7890625 C-52.04135381 53.9475345 -53.02946548 52.12861194 -54 50 C-52.9275 49.773125 -51.855 49.54625 -50.75 49.3125 C-32.26112365 44.61691236 -16.9081654 33.73142786 -7 17.4375 C-3.7394221 11.87583535 -1.30123528 6.35660913 0 0 Z " fill="#F96903" transform="translate(936,644)"/>
<path d="M0 0 C1.29355156 -0.00618599 1.29355156 -0.00618599 2.61323547 -0.01249695 C3.55622498 -0.00171112 4.49921448 0.00907471 5.47077942 0.02018738 C6.4660817 0.0197493 7.46138397 0.01931122 8.48684692 0.01885986 C11.78222658 0.02095271 15.07709978 0.04430754 18.37239075 0.0677948 C20.65496543 0.07338898 22.93754372 0.07765992 25.22012329 0.08065796 C31.23226337 0.0921207 37.24418655 0.12160035 43.25624084 0.1547699 C49.38932867 0.18543989 55.52245149 0.19915674 61.65559387 0.21427917 C73.69279862 0.24646853 85.72984229 0.29768228 97.766922 0.36076355 C97.766922 2.36076355 97.766922 2.36076355 95.766922 4.48576355 C94.76938872 5.44666425 93.76903564 6.40464063 92.766922 7.36076355 C91.47080295 8.62705559 90.17946139 9.89824886 88.891922 11.17326355 C88.27575012 11.77783386 87.65957825 12.38240417 87.0247345 13.0052948 C85.10464799 15.00843003 83.27746768 17.04833508 81.45832825 19.14201355 C77.92745327 23.20440291 74.27597202 27.13685461 70.579422 31.04826355 C69.26003632 32.45025424 67.94103099 33.85260296 66.62239075 35.2552948 C65.64858459 36.29097595 65.64858459 36.29097595 64.65510559 37.34757996 C58.51773173 43.89125527 52.43204521 50.48322341 46.454422 57.17326355 C41.86087588 62.3003613 37.14412207 67.30827719 32.42927551 72.32341003 C23.04403754 82.31224578 13.82462784 92.44919537 4.70051575 102.6771698 C-3.45380927 111.7925939 -11.83879779 120.69397646 -20.22135925 129.5990448 C-20.88119812 130.3007782 -21.54103699 131.0025116 -22.22087097 131.72550964 C-23.47772262 133.06168176 -24.7357709 134.39672978 -25.99528503 135.73039246 C-33.58571642 143.66243589 -33.58571642 143.66243589 -40.233078 152.36076355 C-40.893078 152.36076355 -41.553078 152.36076355 -42.233078 152.36076355 C-42.74354675 150.81968933 -42.74354675 150.81968933 -43.264328 149.2474823 C-46.38328097 140.18672654 -49.88880524 132.69419712 -56.233078 125.36076355 C-57.34296082 124.06718933 -57.34296082 124.06718933 -58.4752655 122.7474823 C-68.68602493 111.71651433 -81.102188 106.47732534 -95.233078 102.36076355 C-93.57230734 98.21386954 -90.57327603 95.29358609 -87.545578 92.11076355 C-86.4497574 90.94221293 -85.35470089 89.77294529 -84.26042175 88.60295105 C-83.4712738 87.76135437 -83.4712738 87.76135437 -82.66618347 86.90275574 C-80.38538029 84.44865814 -78.19796695 81.91773272 -76.0065155 79.38420105 C-72.93400461 75.87856086 -69.77319149 72.45277984 -66.6315155 69.00920105 C-64.68070658 66.85505048 -62.75914188 64.68357886 -60.858078 62.48576355 C-57.20976086 58.28414712 -53.41928777 54.2180738 -49.63591003 50.13859558 C-46.95921654 47.24729715 -44.31004165 44.34195679 -41.733078 41.36076355 C-38.13225186 37.19510194 -34.37916826 33.17476307 -30.63542175 29.1381073 C-27.95891872 26.24694738 -25.30989076 23.34178223 -22.733078 20.36076355 C-19.55616953 16.68844608 -16.2761763 13.1161138 -12.983078 9.54826355 C-12.46294128 8.98429871 -11.94280457 8.42033386 -11.40690613 7.83927917 C-10.02090954 6.34153774 -8.62733181 4.85082135 -7.233078 3.36076355 C-6.53887772 2.54108361 -6.53887772 2.54108361 -5.83065319 1.70484447 C-3.7720307 -0.02712736 -2.66692197 -0.00984104 0 0 Z " fill="#FC6902" transform="translate(978.2330780029297,457.6392364501953)"/>


<path d="M0 0 C3.47657611 0.01075583 6.95263821 0.00000892 10.42919922 -0.01269531 C29.10649905 -0.02575255 47.35108195 1.19276002 65.72216797 4.63574219 C66.91914307 4.85560791 68.11611816 5.07547363 69.34936523 5.30200195 C77.82724997 6.89373275 86.07415776 8.80851026 94.34716797 11.26074219 C96.06007287 11.74347613 97.77367139 12.22375269 99.48779297 12.70214844 C108.84932231 15.32440466 118.19699169 17.96160313 127.34716797 21.26074219 C128.13220703 21.54175781 128.91724609 21.82277344 129.72607422 22.11230469 C137.14431298 24.92316946 144.17538463 28.55194029 151.22070312 32.17529297 C153.28939225 33.2312507 155.36942182 34.26114902 157.45263672 35.28808594 C175.13431457 44.14671327 190.8444092 55.87680762 205.34716797 69.26074219 C206.16056641 69.99164063 206.97396484 70.72253906 207.81201172 71.47558594 C222.8152442 85.6106386 235.48840604 104.8275834 242.34716797 124.26074219 C242.97365234 126.0203125 242.97365234 126.0203125 243.61279297 127.81542969 C246.20545192 135.42503942 248.09470955 143.1280671 249.65966797 151.01074219 C249.83119385 151.84919678 250.00271973 152.68765137 250.17944336 153.55151367 C251.46026559 160.40281133 251.34716797 166.017696 251.34716797 173.26074219 C235.50716797 173.26074219 219.66716797 173.26074219 203.34716797 173.26074219 C203.01716797 168.97074219 202.68716797 164.68074219 202.34716797 160.26074219 C201.65507882 156.46973005 201.65507882 156.46973005 200.86669922 152.69824219 C200.51817028 151.06303876 200.22431446 149.41529868 199.98388672 147.76074219 C195.93801451 120.29785207 178.76420052 96.16680019 159.34716797 77.26074219 C158.67234375 76.53564453 158.67234375 76.53564453 157.98388672 75.79589844 C143.0439868 60.04042085 123.40404671 49.01770541 104.63916016 38.54394531 C102.7351371 37.477952 100.84065851 36.39493215 98.94873047 35.30761719 C93.7323196 32.34816346 88.56546987 30.12756738 82.89013672 28.19042969 C80.61688183 27.35934726 78.59632485 26.40965723 76.47216797 25.26074219 C59.34185782 16.43914535 37.52062788 13.17990952 18.7175293 9.69995117 C17.04397046 9.38985411 15.37206019 9.07079548 13.70141602 8.74536133 C7.36641451 7.53632324 1.08689573 6.7155938 -5.34033203 6.19824219 C-6.33548828 6.11590332 -7.33064453 6.03356445 -8.35595703 5.94873047 C-22.42771192 4.86941148 -36.5473376 4.59209739 -50.65283203 4.26074219 C-47.77519028 2.65363145 -45.45940304 1.94177072 -42.18457031 1.63671875 C-41.2999411 1.55403748 -40.41531189 1.4713562 -39.50387573 1.38616943 C-38.54498444 1.30868469 -37.58609314 1.23119995 -36.59814453 1.15136719 C-35.08040939 1.02523041 -35.08040939 1.02523041 -33.53201294 0.89654541 C-22.35947049 0.0479871 -11.19975339 -0.04107682 0 0 Z " fill="#FB6A05" transform="translate(853.65283203125,262.7392578125)"/>

<path d="M0 0 C10.26582056 8.70363047 20.14253338 17.84005772 30 27 C30.65371582 27.60714844 31.30743164 28.21429687 31.98095703 28.83984375 C39.31223776 35.65704608 46.61818294 42.47245706 53.59375 49.65625 C55.54279441 51.55466988 57.51781094 53.31855896 59.58203125 55.0859375 C65.04724041 59.8286534 70.09682719 64.98918654 75.1875 70.125 C76.16838194 71.11091377 77.14950049 72.09659221 78.13085938 73.08203125 C79.93530568 74.89455441 81.73810452 76.70865782 83.53979492 78.52392578 C84.3516626 79.34103027 85.16353027 80.15813477 86 81 C86.83789062 81.84876709 87.67578125 82.69753418 88.5390625 83.57202148 C90.76463749 85.76778967 93.04320332 87.84329449 95.39453125 89.90234375 C101.74201737 95.58414947 107.74748706 101.59717902 113.76000977 107.62963867 C115.69109547 109.56610549 117.62749882 111.49713956 119.56445312 113.42773438 C124.9484323 118.80911648 130.26266922 124.17283655 135.19458008 129.97631836 C139.55842751 134.8677222 144.33630024 139.39598196 149 144 C160.9809458 155.82762474 160.9809458 155.82762474 166.39453125 162.171875 C169.26631818 165.44193895 172.39406842 168.4545013 175.5 171.5 C179.93255618 175.88514916 184.24328301 180.27811904 188.265625 185.046875 C191.01858155 188.1470513 193.99956035 191.0197751 196.94970703 193.93017578 C200.22086374 197.17428883 203.26993632 200.53652822 206.2578125 204.0390625 C208.2543789 206.28631885 210.36012946 208.38894927 212.5 210.5 C215.20383393 213.16754086 217.79255535 215.85459492 220.25 218.75 C224.1269508 223.28842108 228.3834539 227.43567605 232.64550781 231.60839844 C236.89781703 235.79563406 236.89781703 235.79563406 238 238 C238.99 238.33 239.98 238.66 241 239 C241 239.99 241 240.98 241 242 C226.48 242 211.96 242 197 242 C197 241.67 197 241.34 197 241 C204.92 240.67 212.84 240.34 221 240 C218.6178125 237.40125 218.6178125 237.40125 216.1875 234.75 C215.38276245 233.87190674 215.38276245 233.87190674 214.56176758 232.97607422 C212.08814634 230.27703599 209.61364328 227.57881984 207.13671875 224.8828125 C201.3867784 218.62210348 195.67643741 212.32749833 190 206 C188.50028872 204.33307353 187.00028679 202.66640851 185.5 201 C183.27170886 198.52497766 181.0442116 196.04928246 178.8203125 193.5703125 C174.69902148 188.97969297 170.55120059 184.41558619 166.375 179.875 C162.7647533 175.94802158 159.20749555 171.9821553 155.70703125 167.95703125 C147.74796838 158.83233904 139.43470722 150.04703492 131.12158203 141.24658203 C127.70250728 137.62606122 124.28839441 134.00087562 120.875 130.375 C120.21040771 129.66915771 119.54581543 128.96331543 118.86108398 128.23608398 C113.99123768 123.0609406 109.13924806 117.86942062 104.29516602 112.67016602 C99.81815561 107.86797057 95.31722189 103.08869288 90.8125 98.3125 C86.34191806 93.5709737 81.89250658 88.81397647 77.5 84 C71.10587157 76.99417618 64.59038025 70.10375414 58.08056641 63.20556641 C54.71715246 59.64007924 51.35877427 56.06985717 48 52.5 C46.66669207 51.08330943 45.3333587 49.66664279 44 48.25 C36 39.75 36 39.75 33.99804688 37.62280273 C32.67138657 36.21330721 31.34456496 34.8039635 30.01757812 33.39477539 C26.58077497 29.74465051 23.14723906 26.09153025 19.71875 22.43359375 C18.65914062 21.304375 18.65914062 21.304375 17.578125 20.15234375 C16.24373122 18.73016091 14.91031274 17.30706199 13.578125 15.8828125 C9.64919699 11.69800892 5.62811453 7.64140553 1.48632812 3.66625977 C0 2 0 2 0 0 Z " fill="#F6710D" transform="translate(231,557)"/>
<path d="M0 0 C5.70026789 3.72709823 9.53819099 8.67323486 12 15 C13.45298532 23.99614314 12.21719288 31.50206706 7 39 C4.4375 41.9375 4.4375 41.9375 2 44 C1.360625 44.556875 0.72125 45.11375 0.0625 45.6875 C-7.12117542 50.25892981 -15.83797517 49.78560523 -24 49 C-27.33518848 47.91188843 -29.48937018 46.42264045 -32 44 C-32.95132813 43.09314453 -32.95132813 43.09314453 -33.921875 42.16796875 C-39.55906609 36.26289461 -42.05336826 30.76744015 -42.5 22.625 C-42.25258981 14.85847158 -38.92522562 8.7948276 -33.75 3.125 C-23.75815998 -5.98394036 -11.6579914 -6.22993191 0 0 Z " fill="#FAFAFB" transform="translate(883,604)"/>
<path d="M0 0 C0.66 0.33 1.32 0.66 2 1 C-5.69539704 8.28666716 -13.64216525 15.03828297 -22.04589844 21.49169922 C-24.12665713 23.09776209 -26.19317416 24.72092928 -28.2578125 26.34765625 C-49.3221555 42.91389638 -71.25493203 57.85349487 -94 72 C-94.63341309 72.39541992 -95.26682617 72.79083984 -95.91943359 73.19824219 C-123.58563186 90.3975852 -154.04420715 106.70271144 -184.6875 117.9375 C-186.07168282 118.44773159 -187.45579546 118.9581536 -188.83984375 119.46875 C-189.53190918 119.72269531 -190.22397461 119.97664062 -190.93701172 120.23828125 C-192.92184653 120.97114333 -194.90120586 121.71687204 -196.87890625 122.46875 C-200.91112811 124.00145396 -204.95254214 125.50801384 -209 127 C-210.13646973 127.41983154 -210.13646973 127.41983154 -211.29589844 127.84814453 C-223.51615707 132.33124228 -235.82845717 136.00813303 -248.41601562 139.30908203 C-250.80234021 139.94714879 -253.17548202 140.61737351 -255.546875 141.30859375 C-285.42374946 150.00547969 -316.82793504 155.53134202 -348 155 C-348 154.67 -348 154.34 -348 154 C-347.44876465 153.93006836 -346.8975293 153.86013672 -346.32958984 153.78808594 C-326.54852568 151.2517384 -307.07556411 147.72576175 -287.57327271 143.5821228 C-285.97012492 143.2418698 -284.36652164 142.90375418 -282.76242065 142.56802368 C-271.94287426 140.29554136 -261.5070703 137.44434921 -251 134 C-248.64699758 133.26708503 -246.29297342 132.53743427 -243.9375 131.8125 C-240.95630203 130.88141949 -237.97813515 129.94082845 -235 129 C-233.24937256 128.44771729 -233.24937256 128.44771729 -231.46337891 127.88427734 C-228.08076707 126.81560565 -224.70053308 125.73961379 -221.32131958 124.6602478 C-219.96145355 124.22678086 -218.60101607 123.79510179 -217.23995972 123.36538696 C-208.6365704 120.64686858 -200.28026291 117.59133438 -192 114 C-187.4907078 112.14460069 -182.97190088 110.34950647 -178.3828125 108.69921875 C-170.09531567 105.71773496 -162.27291977 102.28839709 -154.4453125 98.2578125 C-150.25578381 96.10653645 -146.00949761 94.08723646 -141.7512207 92.07617188 C-92.65976179 68.87834698 -38.79350407 38.79350407 0 0 Z " fill="#FA7120" transform="translate(870,867)"/>








<path d="M0 0 C10.26582056 8.70363047 20.14253338 17.84005772 30 27 C30.65371582 27.60714844 31.30743164 28.21429687 31.98095703 28.83984375 C39.39042248 35.7297484 46.72699348 42.65491788 53.828125 49.86328125 C55.90065278 51.90226092 58.03704821 53.80316323 60.25 55.6875 C63.92751279 58.82684019 66.9440509 62.25646236 70 66 C69.34 66 68.68 66 68 66 C67.01 67.98 67.01 67.98 66 70 C58.2898846 63.60224467 51.3304823 56.63556268 44.8125 49.03125 C42.7890712 46.76361428 40.66346653 44.6342305 38.5 42.5 C35.0928121 39.13885518 31.92541826 35.66298797 28.8125 32.03125 C26.7890712 29.76361428 24.66346653 27.6342305 22.5 25.5 C19.14434223 22.18953627 16.02942041 18.77179083 12.97265625 15.1875 C9.9819242 11.87104466 6.77848739 8.76983534 3.55517578 5.68017578 C2.33381215 4.48959205 1.16221806 3.24838613 0 2 C0 1.34 0 0.68 0 0 Z " fill="#F36F0E" transform="translate(231,557)"/>



<path d="M0 0 C0.99 0.495 0.99 0.495 2 1 C-5.69539704 8.28666716 -13.64216525 15.03828297 -22.04589844 21.49169922 C-24.12665713 23.09776209 -26.19317416 24.72092928 -28.2578125 26.34765625 C-42.82897702 37.80727834 -57.74734225 48.68270252 -73.24951172 58.84912109 C-76.15537203 60.75961279 -79.0457398 62.69326262 -81.9375 64.625 C-83.625 65.75 -85.3125 66.875 -87 68 C-87.66 67.67 -88.32 67.34 -89 67 C-90.67654729 67.27942455 -92.34608154 67.60828247 -94 68 C-91.27070168 64.84581431 -87.80080722 62.98454963 -84.23828125 60.921875 C-76.37729357 56.28595836 -68.76448229 51.33354159 -61.1875 46.25 C-60.539021 45.81624054 -59.89054199 45.38248108 -59.22241211 44.93557739 C-28.14215276 24.35262039 -28.14215276 24.35262039 0 0 Z " fill="#FC7931" transform="translate(870,867)"/>
<path d="M0 0 C3.47657611 0.01075583 6.95263821 0.00000892 10.42919922 -0.01269531 C21.082956 -0.01985522 31.662689 0.17983208 42.27685547 1.15136719 C43.14150421 1.22885193 44.00615295 1.30633667 44.89700317 1.38616943 C48.87622898 1.79975381 51.80099006 2.3106323 55.34716797 4.26074219 C52.0346861 4.28962365 48.7222363 4.30750018 45.40966797 4.32324219 C44.46414063 4.33162109 43.51861328 4.34 42.54443359 4.34863281 C41.19575195 4.3534668 41.19575195 4.3534668 39.81982422 4.35839844 C38.57084351 4.36625366 38.57084351 4.36625366 37.29663086 4.37426758 C35.34716797 4.26074219 35.34716797 4.26074219 34.34716797 3.26074219 C25.94574549 1.85268255 17.38170452 2.25735525 8.90966797 2.57324219 C7.86738037 2.60788574 6.82509277 2.6425293 5.7512207 2.67822266 C4.25377319 2.74420654 4.25377319 2.74420654 2.72607422 2.81152344 C1.38911499 2.8682019 1.38911499 2.8682019 0.02514648 2.92602539 C-2.7138574 3.16200621 -2.7138574 3.16200621 -5.37817383 4.2902832 C-9.8107053 5.60388289 -13.83687777 5.40375338 -18.42626953 5.23730469 C-19.35001373 5.21227875 -20.27375793 5.18725281 -21.22549438 5.16146851 C-24.16000199 5.07965686 -27.09379703 4.98291797 -30.02783203 4.88574219 C-32.02389719 4.82746291 -34.01999113 4.77016052 -36.01611328 4.71386719 C-40.8954253 4.57413605 -45.7741535 4.42102081 -50.65283203 4.26074219 C-47.77519028 2.65363145 -45.45940304 1.94177072 -42.18457031 1.63671875 C-41.2999411 1.55403748 -40.41531189 1.4713562 -39.50387573 1.38616943 C-38.54498444 1.30868469 -37.58609314 1.23119995 -36.59814453 1.15136719 C-35.08040939 1.02523041 -35.08040939 1.02523041 -33.53201294 0.89654541 C-22.35947049 0.0479871 -11.19975339 -0.04107682 0 0 Z " fill="#FB772E" transform="translate(853.65283203125,262.7392578125)"/>
<path d="M0 0 C0 0.66 0 1.32 0 2 C0.99 2.99 0.99 2.99 2 4 C-21.94159143 9.88368521 -46.31937103 13.42069254 -71 13 C-71 12.67 -71 12.34 -71 12 C-70.44876465 11.93006836 -69.8975293 11.86013672 -69.32958984 11.78808594 C-49.58715825 9.25669191 -30.13427581 5.76659385 -10.67822266 1.57470703 C-9.71835449 1.36958496 -8.75848633 1.16446289 -7.76953125 0.953125 C-6.91979736 0.76911133 -6.07006348 0.58509766 -5.19458008 0.39550781 C-3 0 -3 0 0 0 Z " fill="#FD7524" transform="translate(593,1009)"/>
<path d="M0 0 C0 0.66 0 1.32 0 2 C-33.66 2 -67.32 2 -102 2 C-102 1.34 -102 0.68 -102 0 C-100.84599197 -0.01030746 -99.69198395 -0.02061493 -98.50300598 -0.03123474 C-87.62927989 -0.12897737 -76.75561092 -0.23171234 -65.88197803 -0.33933926 C-60.29169988 -0.3945111 -54.70141643 -0.44792196 -49.11108398 -0.49731445 C-43.71644765 -0.5450426 -38.32187409 -0.5973885 -32.92731285 -0.65294075 C-30.86884817 -0.67332601 -28.81036629 -0.69204536 -26.75187111 -0.70907402 C-23.86942965 -0.7332028 -20.98710611 -0.76324579 -18.10473633 -0.79467773 C-17.25309402 -0.8004332 -16.40145172 -0.80618866 -15.52400208 -0.81211853 C-1.56476111 -0.98521996 -1.56476111 -0.98521996 0 0 Z " fill="#F88042" transform="translate(1077,797)"/>


<path d="M0 0 C5.76821616 4.89044414 11.40342866 9.91431899 17 15 C17.54060059 15.48871582 18.08120117 15.97743164 18.63818359 16.48095703 C20.3669107 18.04551159 22.0902085 19.61586621 23.8125 21.1875 C24.62098389 21.91767334 24.62098389 21.91767334 25.44580078 22.66259766 C28.96289741 25.88723946 32.09669259 29.20584411 35 33 C35 33.66 35 34.32 35 35 C36.78612311 36.80693756 36.78612311 36.80693756 39 38.625 C39.7425 39.25664063 40.485 39.88828125 41.25 40.5390625 C41.8275 41.02117188 42.405 41.50328125 43 42 C42.67 43.32 42.34 44.64 42 46 C38.04562553 42.13806545 34.16130067 38.26110078 30.5625 34.0625 C27.99334729 31.07198284 25.30682744 28.26883316 22.5 25.5 C19.14434223 22.18953627 16.02942041 18.77179083 12.97265625 15.1875 C9.9819242 11.87104466 6.77848739 8.76983534 3.55517578 5.68017578 C2.33381215 4.48959205 1.16221806 3.24838613 0 2 C0 1.34 0 0.68 0 0 Z " fill="#E36721" transform="translate(231,557)"/>
<path d="M0 0 C0.99559433 -0.00073013 1.99118866 -0.00146027 3.01695251 -0.00221252 C6.30181703 0.0012659 9.5852568 0.04014079 12.86987305 0.0793457 C15.1495842 0.08867288 17.42930539 0.09578944 19.70903015 0.1007843 C25.70488223 0.11986136 31.70012727 0.16896929 37.69573975 0.2243042 C43.8155496 0.2754808 49.93545769 0.29829502 56.05541992 0.32348633 C68.0602437 0.37708649 80.06461724 0.46240868 92.0690918 0.56762695 C92.0690918 1.22762695 92.0690918 1.88762695 92.0690918 2.56762695 C90.10982117 4.28198875 88.11028968 5.95167863 86.0690918 7.56762695 C85.5740918 5.09262695 85.5740918 5.09262695 85.0690918 2.56762695 C38.5390918 2.07262695 38.5390918 2.07262695 -8.9309082 1.56762695 C-9.5909082 2.88762695 -10.2509082 4.20762695 -10.9309082 5.56762695 C-13.0559082 7.31762695 -13.0559082 7.31762695 -14.9309082 8.56762695 C-14.9309082 5.56762695 -14.9309082 5.56762695 -13.05158997 2.91560364 C-8.67759249 -0.37535804 -5.33572642 -0.10249749 0 0 Z " fill="#FB6F1A" transform="translate(983.930908203125,457.432373046875)"/>

<path d="M0 0 C-1.35712067 4.07136202 -3.09678426 4.40176561 -6.86328125 6.35546875 C-7.45167282 6.66196854 -8.04006439 6.96846832 -8.64628601 7.28425598 C-9.89218817 7.93018271 -11.14062736 8.57123571 -12.39135742 9.20776367 C-14.30133734 10.18180731 -16.20068896 11.17452203 -18.09960938 12.16992188 C-19.31190944 12.79541675 -20.52478238 13.41980281 -21.73828125 14.04296875 C-22.84212158 14.61039795 -23.94596191 15.17782715 -25.08325195 15.76245117 C-28 17 -28 17 -32 17 C-32 16.34 -32 15.68 -32 15 C-31.34 15 -30.68 15 -30 15 C-30 14.01 -30 13.02 -30 12 C-18.48726115 5.89824841 -18.48726115 5.89824841 -13.75 4.875 C-9.94866345 3.98802147 -7.06107361 2.65883301 -3.6640625 0.8046875 C-2 0 -2 0 0 0 Z " fill="#FB6D19" transform="translate(753,950)"/>



<path d="M0 0 C3.72333791 0.61609188 6.81636679 1.69995986 10.25 3.25 C17.95551886 6.55374121 25.93811176 8.75527993 34 11 C32.72485508 13.55028983 31.59658703 13.93081711 29 15 C25.32401395 15 23.5309497 13.91649615 20.2734375 12.2265625 C18.6028125 11.3603125 18.6028125 11.3603125 16.8984375 10.4765625 C15.73570312 9.86554687 14.57296875 9.25453125 13.375 8.625 C12.20453125 8.02171875 11.0340625 7.4184375 9.828125 6.796875 C1.12735479 2.25470958 1.12735479 2.25470958 0 0 Z " fill="#FB7624" transform="translate(343,1001)"/>
<path d="M0 0 C0.66 0.66 1.32 1.32 2 2 C-1.33333333 3.66666667 -4.66666667 5.33333333 -8 7 C-8.70125 7.3815625 -9.4025 7.763125 -10.125 8.15625 C-12.77164734 9.3472413 -15.13881519 9.13005385 -18 9 C-18 7.35 -18 5.7 -18 4 C-15.56592995 3.13475247 -13.12856816 2.28257135 -10.6875 1.4375 C-9.99720703 1.19064453 -9.30691406 0.94378906 -8.59570312 0.68945312 C-3.33984375 -1.11328125 -3.33984375 -1.11328125 0 0 Z " fill="#F87121" transform="translate(685,981)"/>


<path d="M0 0 C0 0.99 0 1.98 0 3 C0.66 3.33 1.32 3.66 2 4 C2.33 3.34 2.66 2.68 3 2 C3.66 2.66 4.32 3.32 5 4 C-9.52900492 9.87668578 -9.52900492 9.87668578 -15.4375 7.8125 C-16.613125 7.214375 -17.78875 6.61625 -19 6 C-19 5.67 -19 5.34 -19 5 C-18.09636719 4.72285156 -17.19273437 4.44570313 -16.26171875 4.16015625 C-15.08222656 3.79792969 -13.90273438 3.43570313 -12.6875 3.0625 C-10.92986328 2.52302734 -10.92986328 2.52302734 -9.13671875 1.97265625 C-2.7751004 0 -2.7751004 0 0 0 Z " fill="#FC7219" transform="translate(641,995)"/>

<path d="M0 0 C0.69738281 0.05220703 1.39476562 0.10441406 2.11328125 0.15820312 C3.82596203 0.28724072 5.53805066 0.42409614 7.25 0.5625 C7.25 0.8925 7.25 1.2225 7.25 1.5625 C-6.38857525 3.96793365 -19.90561202 4.79848389 -33.75 4.5625 C-33.75 4.2325 -33.75 3.9025 -33.75 3.5625 C-33.10450195 3.47685791 -32.45900391 3.39121582 -31.79394531 3.30297852 C-28.86231113 2.91267375 -25.93115667 2.51887418 -23 2.125 C-21.98421875 1.99029297 -20.9684375 1.85558594 -19.921875 1.71679688 C-18.9421875 1.58466797 -17.9625 1.45253906 -16.953125 1.31640625 C-16.05239258 1.19595947 -15.15166016 1.0755127 -14.22363281 0.95141602 C-11.79651758 0.61316534 -11.79651758 0.61316534 -9.65429688 0.0078125 C-6.45775099 -0.73968746 -3.24178801 -0.26657425 0 0 Z " fill="#FA7F3D" transform="translate(555.75,1017.4375)"/>

<path d="M0 0 C0.66 0.33 1.32 0.66 2 1 C-5.26229572 7.87656939 -12.72346617 14.31015149 -20.65625 20.40234375 C-24.52440372 23.37537837 -28.22811322 26.53904696 -31.9140625 29.734375 C-34 31 -34 31 -36.2734375 30.703125 C-36.84320312 30.47109375 -37.41296875 30.2390625 -38 30 C-37.175 29.42894531 -36.35 28.85789062 -35.5 28.26953125 C-23.09091877 19.5911779 -11.2329366 10.16137357 0 0 Z " fill="#FC8A53" transform="translate(870,867)"/>


<path d="M0 0 C3.35620271 1.38877354 5.07298728 2.91677965 7 6 C7 6.66 7 7.32 7 8 C8.78612311 9.80693756 8.78612311 9.80693756 11 11.625 C11.7425 12.25664063 12.485 12.88828125 13.25 13.5390625 C13.8275 14.02117188 14.405 14.50328125 15 15 C14.67 16.32 14.34 17.64 14 19 C9.88797437 14.98409965 5.8300164 10.91747246 1.9375 6.6875 C1.05384766 5.73423828 1.05384766 5.73423828 0.15234375 4.76171875 C-0.22792969 4.18035156 -0.60820312 3.59898437 -1 3 C-0.67 2.01 -0.34 1.02 0 0 Z " fill="#EF640D" transform="translate(259,584)"/>




<path d="M0 0 C10.55004641 -0.20397512 20.98587284 -0.09888962 31.5 0.875 C32.38905029 0.95347168 33.27810059 1.03194336 34.1940918 1.11279297 C35.027229 1.19674316 35.86036621 1.28069336 36.71875 1.3671875 C37.45029297 1.44050293 38.18183594 1.51381836 38.93554688 1.58935547 C41.2184517 2.04345267 42.97176581 2.87555337 45 4 C41.68751813 4.02888146 38.37506833 4.04675799 35.0625 4.0625 C34.11697266 4.07087891 33.17144531 4.07925781 32.19726562 4.08789062 C30.84858398 4.09272461 30.84858398 4.09272461 29.47265625 4.09765625 C28.22367554 4.10551147 28.22367554 4.10551147 26.94946289 4.11352539 C25 4 25 4 24 3 C22.22309891 2.77210574 20.43830032 2.60510212 18.65234375 2.46484375 C17.57275391 2.37783203 16.49316406 2.29082031 15.38085938 2.20117188 C13.67639648 2.0706543 13.67639648 2.0706543 11.9375 1.9375 C10.22723633 1.80118164 10.22723633 1.80118164 8.48242188 1.66210938 C5.65524259 1.43735454 2.82779536 1.21684289 0 1 C0 0.67 0 0.34 0 0 Z " fill="#F99052" transform="translate(864,263)"/>




<path d="M0 0 C0.33 0.99 0.66 1.98 1 3 C-0.15234375 4.76171875 -0.15234375 4.76171875 -1.9375 6.6875 C-2.576875 7.38230469 -3.21625 8.07710937 -3.875 8.79296875 C-7.20032142 12.24665736 -10.57003442 15.65021544 -14 19 C-14.99 18.67 -15.98 18.34 -17 18 C-16.19175781 17.20335937 -15.38351562 16.40671875 -14.55078125 15.5859375 C-13.47121829 14.51576205 -12.39179887 13.44544179 -11.3125 12.375 C-10.78205078 11.85292969 -10.25160156 11.33085938 -9.70507812 10.79296875 C-6.24349806 7.35262538 -3.07058135 3.7940764 0 0 Z " fill="#FB6C1C" transform="translate(917,839)"/>
<path d="M0 0 C0.33 0.99 0.66 1.98 1 3 C-2.30678455 8.64160687 -6.88776065 13.02381384 -12 17 C-13.35099103 18.31543863 -14.69205669 19.64175118 -16 21 C-16.66 20.67 -17.32 20.34 -18 20 C-17.25556641 19.27296875 -17.25556641 19.27296875 -16.49609375 18.53125 C-10.57519298 12.68899497 -4.93914341 6.70418264 0 0 Z " fill="#FB681D" transform="translate(954,479)"/>




<path d="M0 0 C6.78376359 5.55035203 12.85522968 11.76442027 19 18 C18.34 18.66 17.68 19.32 17 20 C12.08135099 16.00515817 7.95806157 12.00295354 4.32421875 6.796875 C3.03854086 4.94733598 3.03854086 4.94733598 1.33203125 3.390625 C0 2 0 2 0 0 Z " fill="#FC7823" transform="translate(449,775)"/>


<path d="M0 0 C3.16854747 0.57691478 4.78226459 1.41646887 7.015625 3.72265625 C7.54414063 4.26083984 8.07265625 4.79902344 8.6171875 5.35351562 C9.15601563 5.91748047 9.69484375 6.48144531 10.25 7.0625 C10.80429687 7.63033203 11.35859375 8.19816406 11.9296875 8.78320312 C13.29334214 10.18212469 14.64760417 11.59019114 16 13 C13 14 13 14 10 13 C9.5875 12.278125 9.175 11.55625 8.75 10.8125 C6.72730274 7.56173655 4.41107235 5.67452675 1.42578125 3.33203125 C0.95527344 2.89246094 0.48476563 2.45289063 0 2 C0 1.34 0 0.68 0 0 Z " fill="#FB711D" transform="translate(265,590)"/>
<path d="M0 0 C0.33 1.65 0.66 3.3 1 5 C-1.75 6.625 -1.75 6.625 -5 8 C-7.3125 7.375 -7.3125 7.375 -9 6 C-9.33 5.01 -9.66 4.02 -10 3 C-3.375 0 -3.375 0 0 0 Z " fill="#FB7828" transform="translate(693,976)"/>
<path d="M0 0 C0 0.99 0 1.98 0 3 C-3.56045177 4.18681726 -6.43808337 4.09689832 -10.1875 4.0625 C-11.45980469 4.05347656 -12.73210938 4.04445313 -14.04296875 4.03515625 C-15.50669922 4.01775391 -15.50669922 4.01775391 -17 4 C-12.0251208 0.68341387 -5.96431647 -0.38479461 0 0 Z " fill="#FD6C16" transform="translate(571,1014)"/>












<path d="M0 0 C0 0.99 0 1.98 0 3 C-3.63 4.98 -7.26 6.96 -11 9 C-10.67 7.35 -10.34 5.7 -10 4 C-6.72133612 2.29995206 -3.49533149 1.1651105 0 0 Z " fill="#FC731F" transform="translate(781,933)"/>
<path d="M0 0 C1.32 1.32 2.64 2.64 4 4 C-1.94 4 -7.88 4 -14 4 C-12 2 -12 2 -9.1796875 1.8046875 C-8.08914063 1.82789063 -6.99859375 1.85109375 -5.875 1.875 C-4.77929688 1.89304687 -3.68359375 1.91109375 -2.5546875 1.9296875 C-1.71164062 1.95289063 -0.86859375 1.97609375 0 2 C0 1.34 0 0.68 0 0 Z " fill="#F86406" transform="translate(467,794)"/>
<path d="M0 0 C0.66 0.66 1.32 1.32 2 2 C-2.43076923 5.07692308 -2.43076923 5.07692308 -5.3125 4.6875 C-5.869375 4.460625 -6.42625 4.23375 -7 4 C-7 2.68 -7 1.36 -7 0 C-3.98968256 -0.93423645 -3.13349732 -1.04449911 0 0 Z " fill="#FA6810" transform="translate(685,981)"/>
<path d="M0 0 C0.99 0.33 1.98 0.66 3 1 C-1 5 -5 9 -9 13 C-9.33 12.01 -9.66 11.02 -10 10 C-8.68 9.34 -7.36 8.68 -6 8 C-6 7.34 -6 6.68 -6 6 C-5.34 6 -4.68 6 -4 6 C-3.71125 5.38125 -3.4225 4.7625 -3.125 4.125 C-2 2 -2 2 0 0 Z " fill="#FB650A" transform="translate(974,867)"/>
<path d="M0 0 C0.33 0.99 0.66 1.98 1 3 C-5.5 7 -5.5 7 -10 7 C-10.66 6.67 -11.32 6.34 -12 6 C-10.37829621 4.99466333 -8.75252763 3.99588093 -7.125 3 C-5.76761719 2.1646875 -5.76761719 2.1646875 -4.3828125 1.3125 C-2 0 -2 0 0 0 Z " fill="#FC7D34" transform="translate(788,928)"/>






<path d="M0 0 C2.31 0 4.62 0 7 0 C7.33 0.99 7.66 1.98 8 3 C2.375 5.125 2.375 5.125 -1 4 C-0.67 2.68 -0.34 1.36 0 0 Z " fill="#FB6910" transform="translate(641,994)"/>





<path d="M0 0 C1.258125 0.12375 2.51625 0.2475 3.8125 0.375 C4.87404297 0.47941406 4.87404297 0.47941406 5.95703125 0.5859375 C8 1 8 1 11 3 C7.7 3.33 4.4 3.66 1 4 C0.67 2.68 0.34 1.36 0 0 Z " fill="#FC7E2E" transform="translate(570,1013)"/>
<path d="M0 0 C0 0.99 0 1.98 0 3 C0.66 3.33 1.32 3.66 2 4 C2.33 3.34 2.66 2.68 3 2 C3.66 2.66 4.32 3.32 5 4 C2.09399739 5.25664978 0.20395416 6 -3 6 C-3.33 5.01 -3.66 4.02 -4 3 C-4.66 2.34 -5.32 1.68 -6 1 C-3 0 -3 0 0 0 Z " fill="#FB8033" transform="translate(641,995)"/>
<path d="M0 0 C-5.14285714 5.57142857 -5.14285714 5.57142857 -9 6 C-8.6875 4.125 -8.6875 4.125 -8 2 C-4.77208445 -0.1519437 -3.71599191 -0.20086443 0 0 Z " fill="#FB671A" transform="translate(797,924)"/>
<path d="M0 0 C0.43570313 0.37511719 0.87140625 0.75023437 1.3203125 1.13671875 C5.18607599 4.45859777 9.07657648 7.74642927 13 11 C12.34 11.66 11.68 12.32 11 13 C9.16052663 11.21427748 7.32842259 9.42197551 5.5 7.625 C4.71302734 6.86316406 4.71302734 6.86316406 3.91015625 6.0859375 C2.56846819 4.76167396 1.28004185 3.38394135 0 2 C0 1.34 0 0.68 0 0 Z " fill="#D5612A" transform="translate(231,557)"/>



<path d="M0 0 C0.33 1.32 0.66 2.64 1 4 C-0.21484375 5.703125 -0.21484375 5.703125 -1.9375 7.25 C-2.50339844 7.77078125 -3.06929687 8.2915625 -3.65234375 8.828125 C-4.09707031 9.21484375 -4.54179688 9.6015625 -5 10 C-5.99 9.67 -6.98 9.34 -8 9 C-5.36 6.03 -2.72 3.06 0 0 Z " fill="#FA6A1D" transform="translate(935,500)"/>






<path d="M0 0 C0 0.66 0 1.32 0 2 C-1.8125 2.625 -1.8125 2.625 -4 3 C-4.99 2.34 -5.98 1.68 -7 1 C-8.32567199 0.31822584 -9.65753688 -0.35191436 -11 -1 C-6.65609517 -2.08597621 -3.99390508 -1.99695254 0 0 Z " fill="#F87523" transform="translate(633,1001)"/>
<path d="M0 0 C1.65 0.33 3.3 0.66 5 1 C4.67 1.99 4.34 2.98 4 4 C2.02 4.33 0.04 4.66 -2 5 C-2 4.34 -2 3.68 -2 3 C-1.34 3 -0.68 3 0 3 C0 2.01 0 1.02 0 0 Z " fill="#FC6A11" transform="translate(723,962)"/>
<path d="M0 0 C5.75 1.75 5.75 1.75 8 4 C7.625 6.125 7.625 6.125 7 8 C5.83035398 6.8572081 4.66435444 5.71068285 3.5 4.5625 C2.8503125 3.92441406 2.200625 3.28632812 1.53125 2.62890625 C0 1 0 1 0 0 Z " fill="#D56813" transform="translate(266,595)"/>

<path d="M0 0 C0.33 0.99 0.66 1.98 1 3 C1.99 3.33 2.98 3.66 4 4 C4 4.66 4 5.32 4 6 C4.99 6.33 5.98 6.66 7 7 C3.53058454 6.54177532 0.32604951 6.10868317 -3 5 C-1.125 1.125 -1.125 1.125 0 0 Z " fill="#FA7B36" transform="translate(886,555)"/>

<path d="M0 0 C0 1.32 0 2.64 0 4 C0.66 4 1.32 4 2 4 C2.33 3.34 2.66 2.68 3 2 C3.66 2.66 4.32 3.32 5 4 C2.69 4.66 0.38 5.32 -2 6 C-2 4.68 -2 3.36 -2 2 C-3.32 1.67 -4.64 1.34 -6 1 C-3 0 -3 0 0 0 Z " fill="#FA8035" transform="translate(650,992)"/>


<path d="M0 0 C0.66 0 1.32 0 2 0 C3.2890625 1.53125 3.2890625 1.53125 4.625 3.5 C5.07101562 4.1496875 5.51703125 4.799375 5.9765625 5.46875 C6.31429687 5.9740625 6.65203125 6.479375 7 7 C4.03 6.505 4.03 6.505 1 6 C0.67 4.02 0.34 2.04 0 0 Z " fill="#FA6D1A" transform="translate(936,644)"/>




<path d="M0 0 C0 0.66 0 1.32 0 2 C-3.25 3.625 -3.25 3.625 -7 5 C-9.234375 4.0859375 -9.234375 4.0859375 -11 3 C-9.54293274 2.49632243 -8.08429904 1.99717444 -6.625 1.5 C-5.81289063 1.2215625 -5.00078125 0.943125 -4.1640625 0.65625 C-2 0 -2 0 0 0 Z " fill="#F47B2F" transform="translate(684,995)"/>
<path d="M0 0 C0.33 0.99 0.66 1.98 1 3 C-0.40445835 5.2636564 -2.1967913 7.0208685 -4 9 C-4.99 8.67 -5.98 8.34 -7 8 C-4.69 5.36 -2.38 2.72 0 0 Z " fill="#FC6C1E" transform="translate(916,521)"/>

<path d="M0 0 C3.7952131 1.49097658 5.61042731 3.75700849 8 7 C5 7 5 7 2.3125 4.625 C0 2 0 2 0 0 Z " fill="#FA7126" transform="translate(916,575)"/>



<path d="M0 0 C0 1.65 0 3.3 0 5 C-2.31 4.34 -4.62 3.68 -7 3 C-4.74624683 0.74624683 -3.20799182 0 0 0 Z " fill="#FC7E2D" transform="translate(714,967)"/>
<path d="M0 0 C3.7952131 1.49097658 5.61042731 3.75700849 8 7 C4.21388773 6.45912682 2.44599233 4.88277668 0 2 C0 1.34 0 0.68 0 0 Z " fill="#F46413" transform="translate(243,569)"/>
<path d="M0 0 C2.64 0.33 5.28 0.66 8 1 C7.67 1.66 7.34 2.32 7 3 C4.69 3 2.38 3 0 3 C0 2.01 0 1.02 0 0 Z " fill="#F96106" transform="translate(622,1001)"/>
<path d="M0 0 C0.33 0.99 0.66 1.98 1 3 C-0.9375 5.6875 -0.9375 5.6875 -3 8 C-3.99 7.67 -4.98 7.34 -6 7 C-4.02 4.69 -2.04 2.38 0 0 Z " fill="#FC6D1F" transform="translate(924,831)"/>

<path d="M0 0 C3.25543229 0.34879632 4.01873107 1.02133261 6.25 3.5625 C6.8275 4.366875 7.405 5.17125 8 6 C5 6 5 6 3.61328125 4.6875 C2.40885417 3.125 1.20442708 1.5625 0 0 Z " fill="#FC7C22" transform="translate(437,764)"/>
<path d="M0 0 C0.66 0.99 1.32 1.98 2 3 C0.35 4.65 -1.3 6.3 -3 8 C-3.99 7.67 -4.98 7.34 -6 7 C-4.02 4.69 -2.04 2.38 0 0 Z " fill="#FB6F28" transform="translate(926,666)"/>

<path d="M0 0 C2.62187494 1.04874998 3.79371361 1.64931313 5.25 4.125 C5.4975 4.74375 5.745 5.3625 6 6 C4.68 6.33 3.36 6.66 2 7 C1.34 4.69 0.68 2.38 0 0 Z " fill="#FA7D2C" transform="translate(933,600)"/>



<path d="M0 0 C0 0.66 0 1.32 0 2 C-2.8125 3.5625 -2.8125 3.5625 -6 5 C-6.99 4.67 -7.98 4.34 -9 4 C-6.43425105 1.43425105 -3.68548192 0 0 0 Z " fill="#F56C21" transform="translate(815,986)"/>
<path d="M0 0 C1.65 0 3.3 0 5 0 C4.67 1.32 4.34 2.64 4 4 C2.68 4 1.36 4 0 4 C0 2.68 0 1.36 0 0 Z " fill="#F9630C" transform="translate(667,986)"/>

<path d="M0 0 C0.66 0.33 1.32 0.66 2 1 C0.68 2.65 -0.64 4.3 -2 6 C-3.32 5.67 -4.64 5.34 -6 5 C-4.02 3.35 -2.04 1.7 0 0 Z " fill="#FC6D1F" transform="translate(847,903)"/>
<path d="M0 0 C1.98 0.99 1.98 0.99 4 2 C4 2.99 4 3.98 4 5 C2.68 5 1.36 5 0 5 C0 3.35 0 1.7 0 0 Z " fill="#FC711B" transform="translate(1069,791)"/>
<path d="M0 0 C3.36720387 1.39332574 4.9859524 2.9789286 7 6 C4 6 4 6 1.8125 4.125 C0 2 0 2 0 0 Z " fill="#E06D0D" transform="translate(357,691)"/>

<path d="M0 0 C1.32 0 2.64 0 4 0 C3.67 1.32 3.34 2.64 3 4 C1.35 3.67 -0.3 3.34 -2 3 C-1.34 2.01 -0.68 1.02 0 0 Z " fill="#D8DAE5" transform="translate(226,594)"/>
<path d="M0 0 C1.65 1.65 3.3 3.3 5 5 C4.01 5.66 3.02 6.32 2 7 C0.5393715 4.35261084 0 3.10551666 0 0 Z " fill="#F17322" transform="translate(255,579)"/>



<path d="M0 0 C2.31 0.33 4.62 0.66 7 1 C6.67 1.66 6.34 2.32 6 3 C3.69 3 1.38 3 -1 3 C-0.67 2.01 -0.34 1.02 0 0 Z " fill="#FB5F05" transform="translate(593,1009)"/>
<path d="M0 0 C1.65 0.33 3.3 0.66 5 1 C5 1.66 5 2.32 5 3 C3.02 3.33 1.04 3.66 -1 4 C-0.67 2.68 -0.34 1.36 0 0 Z " fill="#FB6E13" transform="translate(714,967)"/>
<path d="M0 0 C0 0.99 0 1.98 0 3 C-3 5 -3 5 -6 5 C-5.67 4.01 -5.34 3.02 -5 2 C-2.4375 0.8125 -2.4375 0.8125 0 0 Z " fill="#FD650E" transform="translate(781,933)"/>
<path d="M0 0 C0.66 0.66 1.32 1.32 2 2 C-0.3125 3.5625 -0.3125 3.5625 -3 5 C-3.99 4.67 -4.98 4.34 -6 4 C-4.02 2.68 -2.04 1.36 0 0 Z " fill="#FA7322" transform="translate(836,912)"/>
<path d="M0 0 C0.66 0 1.32 0 2 0 C0.75023244 3.65316671 0.32901247 4.78065836 -3 7 C-3.33 6.01 -3.66 5.02 -4 4 C-2.68 3.34 -1.36 2.68 0 2 C0 1.34 0 0.68 0 0 Z " fill="#FC7421" transform="translate(968,873)"/>
<path d="M0 0 C0.66 0.66 1.32 1.32 2 2 C-0.97 4.475 -0.97 4.475 -4 7 C-4.66 6.67 -5.32 6.34 -6 6 C-4.02 4.02 -2.04 2.04 0 0 Z " fill="#E3E4ED" transform="translate(787,774)"/>

<path d="M0 0 C1.98 1.65 3.96 3.3 6 5 C5.34 5.66 4.68 6.32 4 7 C2.35 5.02 0.7 3.04 -1 1 C-0.67 0.67 -0.34 0.34 0 0 Z " fill="#FEF3EB" transform="translate(927,746)"/>


<path d="M0 0 C0.66 0.99 1.32 1.98 2 3 C0 5 0 5 -2.625 5.125 C-3.40875 5.08375 -4.1925 5.0425 -5 5 C-3.35 3.35 -1.7 1.7 0 0 Z " fill="#FB6C21" transform="translate(914,679)"/>



<path d="M0 0 C0.33 0.99 0.66 1.98 1 3 C-1.97 5.475 -1.97 5.475 -5 8 C-5.66 7.67 -6.32 7.34 -7 7 C-4.69 4.69 -2.38 2.38 0 0 Z " fill="#FDE9DC" transform="translate(967,577)"/>
<path d="M0 0 C-1.04874998 2.62187494 -1.64931313 3.79371361 -4.125 5.25 C-4.74375 5.4975 -5.3625 5.745 -6 6 C-6.33 5.34 -6.66 4.68 -7 4 C-2.25 0 -2.25 0 0 0 Z " fill="#E4E5EE" transform="translate(470,357)"/>




</svg>
